<?xml version="1.0" standalone="no"?>
<!DOCTYPE svg PUBLIC "-//W3C//DTD SVG 20010904//EN"
 "http://www.w3.org/TR/2001/REC-SVG-20010904/DTD/svg10.dtd">
<svg version="1.0" xmlns="http://www.w3.org/2000/svg"
 width="1024.000000pt" height="1024.000000pt" viewBox="0 0 1024.000000 1024.000000"
 preserveAspectRatio="xMidYMid meet">

<g transform="translate(0.000000,1024.000000) scale(0.100000,-0.100000)"
fill="#000000" stroke="none">
<path d="M5107 8434 c-3 -5 -17 -72 -31 -149 -37 -195 -113 -576 -131 -660 -9
-39 -27 -143 -40 -230 -13 -88 -27 -175 -31 -193 l-7 -33 129 7 c102 5 132 10
142 23 9 11 12 43 10 106 -1 50 -2 145 0 213 2 98 5 122 16 122 8 0 21 -7 30
-15 8 -8 26 -15 39 -15 18 0 27 -7 31 -25 4 -14 11 -25 17 -25 6 0 8 8 5 18
-3 9 -12 62 -20 117 -9 56 -22 133 -30 173 -9 39 -27 140 -41 224 -39 233 -73
366 -88 342z"/>
<path d="M4695 7614 c-363 -57 -800 -258 -1114 -514 -174 -141 -369 -354 -491
-534 -133 -198 -284 -516 -330 -696 -29 -115 -59 -292 -66 -395 l-7 -93 54 14
c29 8 68 11 85 8 l31 -6 6 80 c3 43 18 135 32 203 65 316 164 544 354 818 173
250 351 424 611 598 234 156 563 289 825 334 66 12 121 22 121 22 1 1 4 41 8
90 7 100 20 92 -119 71z"/>
<path d="M5424 7592 c3 -20 6 -63 6 -94 l0 -58 33 0 c125 0 419 -83 634 -178
348 -156 689 -457 943 -834 163 -242 283 -541 336 -835 15 -84 30 -157 33
-162 4 -6 31 -14 61 -20 30 -5 65 -12 78 -16 20 -7 22 -4 22 35 0 57 -35 261
-65 381 -101 400 -311 766 -629 1097 -230 238 -450 398 -714 517 -248 112
-444 167 -711 200 l-33 4 6 -37z"/>
<path d="M5516 7273 c-13 -81 -10 -92 32 -98 20 -3 45 -11 55 -16 11 -6 21 -8
24 -5 11 11 33 110 25 116 -4 4 -27 12 -52 19 -25 7 -52 14 -61 17 -12 3 -18
-5 -23 -33z"/>
<path d="M4637 7290 c-20 -4 -39 -9 -40 -11 -2 -2 5 -32 15 -66 l19 -61 34 14
c19 8 44 14 55 14 27 0 34 20 26 75 -7 43 -9 45 -39 44 -18 -1 -49 -5 -70 -9z"/>
<path d="M4423 7228 c-29 -11 -53 -23 -53 -27 0 -3 9 -28 19 -56 21 -55 23
-56 106 -32 55 16 57 21 31 95 -16 45 -33 48 -103 20z"/>
<path d="M5739 7223 c-6 -16 -13 -44 -16 -64 -5 -34 -4 -35 38 -46 24 -6 53
-14 64 -18 18 -5 24 2 43 47 12 29 22 56 22 60 0 6 -115 48 -132 48 -5 0 -13
-12 -19 -27z"/>
<path d="M4237 7162 c-71 -42 -71 -42 -42 -105 15 -31 28 -57 30 -57 19 0 115
52 115 62 -1 7 -13 39 -28 70 l-27 58 -48 -28z"/>
<path d="M5946 7124 c-14 -31 -26 -58 -26 -60 0 -1 27 -16 60 -32 l60 -28 31
54 c17 30 29 55 27 57 -8 7 -115 65 -121 65 -3 0 -17 -25 -31 -56z"/>
<path d="M4035 7071 c-22 -10 -46 -25 -54 -34 -14 -18 -14 -17 60 -110 l16
-20 36 22 c59 36 61 42 30 105 -15 31 -32 56 -38 56 -5 0 -28 -9 -50 -19z"/>
<path d="M6130 7036 c-16 -25 -30 -51 -30 -58 0 -7 21 -23 45 -36 l45 -22 33
36 c41 47 50 62 42 74 -7 12 -79 50 -94 50 -6 0 -24 -20 -41 -44z"/>
<path d="M4895 7009 c-138 -11 -230 -30 -370 -77 -347 -116 -683 -368 -918
-691 -181 -247 -288 -525 -328 -851 -17 -143 -7 -421 21 -538 l22 -94 35 34
c19 18 80 89 136 158 55 69 144 175 197 235 53 61 139 164 192 230 53 66 116
139 140 162 l43 43 95 -90 c52 -49 98 -90 103 -90 4 0 7 8 7 18 0 32 186 285
359 487 127 149 414 499 451 550 14 19 28 34 31 35 3 0 12 -15 21 -32 9 -18
33 -53 55 -78 22 -25 67 -81 100 -125 138 -184 183 -245 283 -381 58 -79 167
-225 243 -325 75 -99 141 -188 146 -197 9 -15 19 -14 108 16 54 17 114 40 134
50 l35 18 170 -180 c93 -100 250 -262 349 -360 l180 -180 15 69 c23 109 21
650 -4 765 -78 366 -288 717 -584 977 -203 177 -495 336 -722 394 -213 54
-459 70 -745 48z m1231 -808 c57 -26 111 -83 124 -131 36 -133 -115 -271 -242
-222 -56 23 -118 114 -118 177 0 71 63 154 136 180 50 18 51 18 100 -4z"/>
<path d="M6284 6938 l-27 -52 38 -33 c21 -18 44 -33 50 -33 18 0 77 79 71 95
-5 15 -83 75 -97 75 -5 0 -21 -23 -35 -52z"/>
<path d="M3848 6949 l-47 -30 47 -58 46 -59 43 29 c23 16 45 34 48 39 7 11
-65 109 -80 109 -5 0 -31 -14 -57 -30z"/>
<path d="M3686 6818 l-46 -43 23 -25 c13 -14 37 -37 53 -53 l30 -27 42 38 c23
22 42 42 42 45 0 7 -80 101 -90 105 -4 1 -28 -17 -54 -40z"/>
<path d="M6463 6807 l-43 -52 45 -44 c43 -44 45 -44 64 -27 11 10 32 36 48 58
l28 41 -45 38 c-25 22 -47 39 -50 39 -3 0 -24 -24 -47 -53z"/>
<path d="M6630 6668 c-57 -66 -57 -65 -9 -114 l43 -44 48 47 c26 26 48 51 48
55 0 11 -80 98 -89 97 -3 0 -22 -19 -41 -41z"/>
<path d="M3536 6660 c-20 -22 -36 -44 -36 -48 0 -12 84 -92 96 -92 6 0 27 19
47 42 l36 41 -20 28 c-21 29 -66 69 -79 69 -4 0 -24 -18 -44 -40z"/>
<path d="M6766 6498 c-25 -29 -46 -54 -46 -58 0 -3 18 -25 39 -50 l39 -45 46
45 c25 24 46 50 46 57 0 18 -41 79 -61 92 -15 8 -25 1 -63 -41z"/>
<path d="M3396 6500 c-42 -46 -41 -48 27 -110 39 -35 50 -41 58 -29 5 8 9 17
9 20 0 3 14 20 32 38 l31 32 -49 44 c-27 24 -54 44 -60 45 -7 0 -28 -18 -48
-40z"/>
<path d="M3265 6308 c-19 -29 -35 -56 -35 -61 0 -9 90 -67 104 -67 6 0 26 25
44 56 l34 55 -28 22 c-31 25 -66 46 -76 47 -4 0 -23 -24 -43 -52z"/>
<path d="M6888 6319 l-47 -31 24 -48 c14 -27 29 -52 35 -55 9 -5 104 27 118
40 5 5 -38 88 -56 108 -20 22 -19 22 -74 -14z"/>
<path d="M5055 6205 c-28 -32 -66 -76 -86 -99 -63 -73 -242 -289 -304 -366
-33 -41 -90 -111 -128 -155 -72 -83 -237 -322 -237 -343 0 -20 -10 -14 -64 36
-76 68 -176 145 -176 134 0 -10 -191 -251 -279 -352 -32 -36 -102 -121 -158
-190 -55 -69 -133 -165 -173 -213 -85 -105 -85 -103 -11 -253 100 -205 278
-438 448 -590 161 -142 378 -275 588 -359 102 -41 327 -84 507 -97 272 -20
605 21 789 97 57 24 297 134 308 142 19 13 -222 282 -563 627 -104 105 -221
229 -260 276 -39 47 -94 112 -123 144 -29 32 -50 63 -47 67 6 10 47 5 169 -18
44 -9 94 -18 111 -20 l32 -5 -44 49 c-54 58 -171 223 -254 356 l-61 97 24 63
c14 34 28 83 31 109 l7 47 62 -63 c56 -56 277 -206 305 -206 5 0 -23 48 -62
108 -40 59 -95 141 -123 182 -28 42 -70 113 -93 160 l-43 84 -7 185 c-5 150
-6 253 0 341 0 2 5 -1 10 -6 10 -10 18 -36 25 -80 4 -27 26 -68 127 -244 145
-249 180 -307 281 -462 95 -145 156 -270 171 -351 5 -29 2 -48 -12 -75 -10
-20 -22 -63 -26 -94 -7 -56 -6 -59 44 -145 29 -48 69 -112 89 -143 45 -65 121
-196 121 -205 0 -4 -38 29 -85 73 -47 44 -132 117 -189 161 -58 45 -119 98
-136 119 l-31 37 23 -50 c47 -102 156 -269 464 -710 120 -173 210 -285 227
-285 25 0 180 135 262 227 65 75 81 98 72 108 -7 7 -54 66 -105 131 -51 65
-123 157 -162 204 -76 93 -97 126 -87 137 7 6 128 -8 191 -23 l30 -7 -36 49
c-52 72 -72 117 -103 229 -53 193 -75 300 -74 365 1 51 3 58 9 34 10 -46 54
-114 205 -318 28 -39 68 -100 89 -136 21 -36 57 -90 80 -120 24 -30 65 -86 91
-124 60 -87 77 -106 90 -106 6 0 26 39 45 87 19 47 40 92 47 99 10 9 -29 53
-185 206 -194 191 -442 450 -474 497 l-17 23 -133 -37 c-73 -20 -140 -39 -148
-41 -20 -5 -246 274 -429 531 -43 61 -100 138 -127 172 -27 33 -74 96 -104
138 -30 43 -71 97 -90 120 -19 23 -44 55 -55 70 l-21 28 -49 -58z m-907 -1197
c44 -84 100 -188 126 -231 47 -79 96 -173 148 -282 l29 -60 -63 61 c-55 53
-216 174 -232 174 -12 0 49 -149 140 -342 52 -111 93 -203 91 -205 -2 -2 -40
50 -84 114 -214 317 -293 430 -312 447 -26 24 -26 26 3 100 25 61 49 184 62
309 3 37 8 67 9 67 2 0 39 -69 83 -152z"/>
<path d="M3140 6048 c-22 -45 -40 -87 -40 -94 0 -11 94 -29 108 -20 10 6 85
156 81 160 -9 6 -90 36 -100 36 -5 0 -28 -37 -49 -82z"/>
<path d="M7003 6105 c-18 -8 -33 -20 -33 -26 0 -7 14 -43 32 -81 24 -52 35
-67 47 -63 9 4 33 12 54 18 34 11 37 15 32 37 -4 14 -19 48 -33 75 -30 55 -48
63 -99 40z"/>
<path d="M7125 5855 c-16 -7 -38 -16 -48 -19 -14 -5 -16 -10 -7 -25 5 -11 15
-43 21 -71 11 -51 12 -52 43 -47 48 8 86 25 86 39 0 34 -38 133 -51 135 -8 1
-27 -4 -44 -12z"/>
<path d="M3056 5808 c-32 -113 -33 -106 18 -113 25 -4 52 -5 59 -2 7 3 18 27
24 53 7 27 14 56 18 65 5 13 -4 20 -41 33 -26 9 -51 16 -56 16 -4 0 -14 -24
-22 -52z"/>
<path d="M3005 5597 c-5 -12 -24 -142 -21 -142 0 -1 26 1 57 3 l57 4 7 45 c4
25 9 51 12 59 6 16 -20 29 -70 37 -25 4 -40 2 -42 -6z"/>
<path d="M7162 5603 c-22 -3 -32 -9 -29 -17 3 -7 8 -38 12 -69 l7 -57 59 0 59
0 -5 43 c-15 110 -14 107 -43 105 -15 0 -42 -3 -60 -5z"/>
<path d="M3015 5319 c-250 -38 -343 -53 -430 -70 -55 -11 -163 -31 -240 -44
-445 -76 -490 -85 -490 -101 0 -5 16 -10 35 -12 19 -1 127 -20 240 -42 285
-55 467 -85 660 -110 91 -12 202 -27 248 -34 l83 -12 -7 50 c-4 28 -7 126 -7
219 1 149 -1 167 -15 166 -10 -1 -44 -5 -77 -10z"/>
<path d="M7133 5218 c3 -62 2 -156 -2 -208 -5 -52 -7 -97 -5 -99 4 -5 424 47
519 65 44 8 178 28 298 44 176 24 384 62 466 87 33 9 -17 23 -244 66 -299 57
-947 157 -1019 157 -18 0 -19 -7 -13 -112z"/>
<path d="M2690 4812 c0 -37 31 -187 61 -292 119 -422 361 -811 701 -1129 214
-201 472 -368 730 -475 194 -80 423 -143 582 -160 57 -6 58 -6 53 16 -3 13 -9
53 -13 91 l-7 67 -33 0 c-56 0 -310 67 -459 121 -172 63 -245 99 -403 200
-347 222 -623 523 -815 889 -99 188 -185 418 -213 568 l-16 89 -66 10 c-37 6
-75 14 -84 18 -14 5 -18 2 -18 -13z"/>
<path d="M7520 4824 c-8 -1 -41 -6 -72 -9 -55 -6 -58 -8 -58 -33 0 -79 -94
-374 -175 -550 -69 -151 -110 -224 -198 -347 -342 -484 -788 -784 -1377 -929
-58 -14 -127 -27 -155 -30 l-50 -4 -8 -87 c-4 -48 -7 -89 -5 -90 6 -6 286 47
353 66 402 120 840 366 1055 595 122 131 245 281 333 408 105 152 242 413 292
556 43 123 91 316 101 400 7 62 6 63 -36 54z"/>
<path d="M7225 4780 c-11 -5 -34 -9 -52 -9 -31 -1 -31 -1 -52 -92 -12 -50 -21
-97 -21 -105 0 -8 16 -22 35 -30 19 -8 35 -20 35 -26 0 -20 29 28 45 73 8 23
20 70 25 105 6 34 13 70 16 78 7 18 -1 19 -31 6z"/>
<path d="M3050 4733 c-31 -26 -32 -29 -27 -83 3 -31 12 -70 21 -87 l15 -31 54
16 54 16 -14 56 c-16 60 -27 83 -54 118 l-17 22 -32 -27z"/>
<path d="M3133 4468 c-38 -23 -41 -47 -17 -108 19 -46 30 -48 85 -17 44 24 45
38 10 107 -21 42 -35 45 -78 18z"/>
<path d="M7041 4448 c-34 -71 -32 -88 14 -115 22 -12 43 -23 47 -23 11 0 58
96 58 118 0 12 -16 26 -45 40 -25 12 -47 22 -49 22 -2 0 -13 -19 -25 -42z"/>
<path d="M3210 4279 c-19 -12 -36 -23 -38 -24 -4 -4 26 -76 39 -91 8 -10 21
-8 60 14 27 15 49 32 49 38 0 18 -45 79 -60 82 -8 1 -31 -7 -50 -19z"/>
<path d="M6942 4245 l-22 -45 23 -14 c12 -8 35 -20 51 -27 27 -13 30 -12 62
26 19 22 34 46 34 52 0 16 -72 53 -103 53 -17 0 -28 -11 -45 -45z"/>
<path d="M6878 4133 c-40 -47 -40 -57 7 -103 24 -23 48 -40 53 -36 14 9 62 92
62 108 0 8 -21 22 -47 31 -59 21 -56 21 -75 0z"/>
<path d="M3298 4099 c-35 -26 -35 -46 1 -89 26 -32 30 -34 52 -22 13 7 37 24
53 37 l29 24 -27 35 c-32 42 -66 47 -108 15z"/>
<path d="M3412 3957 c-36 -27 -42 -35 -37 -57 3 -14 19 -38 35 -54 l28 -29 50
44 c54 48 55 57 9 107 -26 28 -33 27 -85 -11z"/>
<path d="M6747 3943 l-36 -48 47 -47 c25 -27 49 -48 53 -48 3 0 25 25 48 56
l41 55 -31 27 c-33 28 -69 51 -81 52 -3 0 -22 -21 -41 -47z"/>
<path d="M3584 3817 c-12 -7 -38 -27 -60 -44 l-38 -33 44 -45 c24 -25 50 -45
56 -45 7 0 30 22 52 48 l41 48 -18 28 c-28 43 -53 56 -77 43z"/>
<path d="M6617 3788 l-35 -42 36 -55 c20 -31 38 -58 39 -60 4 -6 102 101 103
111 0 11 -84 87 -97 88 -6 0 -27 -19 -46 -42z"/>
<path d="M3713 3677 c-11 -12 -30 -37 -42 -55 -23 -32 -23 -34 -5 -54 11 -11
35 -28 54 -38 l35 -18 34 51 c32 47 33 53 20 76 -8 14 -28 33 -45 43 -30 18
-31 17 -51 -5z"/>
<path d="M6505 3689 c-5 -5 -28 -25 -50 -43 l-40 -34 21 -24 c12 -12 32 -39
45 -59 l24 -37 53 49 53 49 -47 55 c-26 30 -48 55 -48 55 -1 -1 -5 -5 -11 -11z"/>
<path d="M3847 3520 c-21 -28 -36 -54 -32 -60 3 -5 26 -24 51 -40 l44 -31 28
32 c15 18 35 41 46 50 10 10 15 22 12 27 -7 12 -96 72 -105 72 -3 -1 -23 -23
-44 -50z"/>
<path d="M6330 3545 c-8 -9 -26 -23 -42 -31 -15 -8 -28 -19 -28 -25 0 -14 61
-99 71 -99 12 0 99 60 99 68 -1 4 -20 29 -44 55 -38 43 -44 46 -56 32z"/>
<path d="M4019 3437 c-34 -41 -51 -75 -45 -86 7 -10 91 -51 106 -51 10 0 70
87 70 101 0 8 -90 69 -99 68 -3 0 -18 -15 -32 -32z"/>
<path d="M6155 3443 c-16 -9 -40 -22 -52 -29 l-22 -14 41 -55 c33 -45 45 -54
62 -49 33 10 76 44 76 59 0 16 -60 106 -69 104 -3 -1 -19 -8 -36 -16z"/>
<path d="M4177 3321 c-15 -27 -27 -51 -27 -55 0 -7 121 -69 125 -64 1 2 13 26
26 53 13 28 24 53 26 56 3 5 -106 59 -119 59 -3 0 -17 -22 -31 -49z"/>
<path d="M5972 3345 c-30 -14 -52 -28 -50 -32 2 -5 12 -32 23 -60 11 -29 26
-53 33 -53 12 0 70 28 100 48 11 7 8 21 -14 65 -16 32 -31 57 -34 56 -3 0 -29
-11 -58 -24z"/>
<path d="M5815 3278 c-17 -10 -37 -18 -46 -18 -8 0 -23 -6 -33 -13 -18 -13
-18 -16 -1 -68 10 -30 19 -56 21 -58 7 -8 134 54 134 65 0 7 -10 34 -23 61
l-23 49 -29 -18z"/>
<path d="M4377 3229 c-16 -28 -27 -53 -25 -55 4 -4 136 -54 142 -54 6 0 36 91
36 106 0 11 -96 54 -118 54 -4 0 -20 -23 -35 -51z"/>
<path d="M5561 3202 l-53 -15 7 -61 c3 -34 7 -62 8 -62 3 -3 136 32 141 37 3
2 -1 29 -7 59 -14 63 -19 65 -96 42z"/>
<path d="M4606 3155 c-10 -31 -16 -58 -14 -60 2 -1 33 -9 71 -17 l67 -15 0 32
c0 18 3 46 6 62 6 29 4 30 -33 37 -21 3 -47 9 -58 12 -18 4 -23 -3 -39 -51z"/>
<path d="M4850 3198 c0 -50 261 -1338 271 -1338 12 0 64 320 56 341 -3 8 -6 0
-6 -18 -1 -37 -15 -52 -19 -20 -2 12 -3 248 -3 523 l0 501 -136 8 c-75 4 -142
9 -149 12 -8 3 -14 -1 -14 -9z"/>
<path d="M5075 1675 c-30 -30 -32 -64 -4 -99 26 -33 58 -33 93 -1 34 31 33 60
-3 96 -36 35 -54 36 -86 4z"/>
</g>
</svg>
