<?xml version="1.0" standalone="no"?>
<!DOCTYPE svg PUBLIC "-//W3C//DTD SVG 20010904//EN"
 "http://www.w3.org/TR/2001/REC-SVG-20010904/DTD/svg10.dtd">
<svg version="1.0" xmlns="http://www.w3.org/2000/svg"
 width="1024.000000pt" height="1024.000000pt" viewBox="0 0 1024.000000 1024.000000"
 preserveAspectRatio="xMidYMid meet">

<g transform="translate(0.000000,1024.000000) scale(0.100000,-0.100000)"
fill="#1E3D59" stroke="none">  <!-- Changed from #000000 to #1E3D59 (Deep Blue) -->
<path d="M5107 8434 c-3 -5 -17 -72 -31 -149 -37 -195 -113 -576 -131 -660 -9
-39 -27 -143 -40 -230 -13 -88 -27 -175 -31 -193 l-7 -33 129 7 c102 5 132 10
142 23 9 11 12 43 10 106 -1 50 -2 145 0 213 2 98 5 122 16 122 8 0 21 -7 30
-15 8 -8 26 -15 39 -15 18 0 27 -7 31 -25 4 -14 11 -25 17 -25 6 0 8 8 5 18
-3 9 -12 62 -20 117 -9 56 -22 133 -30 173 -9 39 -27 140 -41 224 -39 233 -73
366 -88 342z"/>
<path d="M4695 7614 c-363 -57 -800 -258 -1114 -514 -174 -141 -369 -354 -491
-534 -133 -198 -284 -516 -330 -696 -29 -115 -59 -292 -66 -395 l-7 -93 54 14
c29 8 68 11 85 8 l31 -6 6 80 c3 43 18 135 32 203 65 316 164 544 354 818 173
250 351 424 611 598 234 156 563 289 825 334 66 12 121 22 121 22 1 1 4 41 8
90 7 100 20 92 -119 71z"/>
<path d="M5424 7592 c3 -20 6 -63 6 -94 l0 -58 33 0 c125 0 419 -83 634 -178
348 -156 689 -457 943 -834 163 -242 283 -541 336 -835 15 -84 30 -157 33
-162 4 -6 31 -14 61 -20 30 -5 65 -12 78 -16 20 -7 22 -4 22 35 0 57 -35 261
-65 381 -101 400 -311 766 -629 1097 -230 238 -450 398 -714 517 -248 112
-444 167 -711 200 l-33 4 6 -37z"/>
<path d="M5516 7273 c-13 -81 -10 -92 32 -98 20 -3 45 -11 55 -16 11 -6 21 -8
24 -5 11 11 33 110 25 116 -4 4 -27 12 -52 19 -25 7 -52 14 -61 17 -12 3 -18
-5 -23 -33z"/>
<path d="M4637 7290 c-20 -4 -39 -9 -40 -11 -2 -2 5 -32 15 -66 l19 -61 34 14
c19 8 44 14 55 14 27 0 34 20 26 75 -7 43 -9 45 -39 44 -18 -1 -49 -5 -70 -9z"/>
<path d="M4423 7228 c-29 -11 -53 -23 -53 -27 0 -3 9 -28 19 -56 21 -55 23
-56 106 -32 55 16 57 21 31 95 -16 45 -33 48 -103 20z"/>
<path d="M5739 7223 c-6 -16 -13 -44 -16 -64 -5 -34 -4 -35 38 -46 24 -6 53
-14 64 -18 18 -5 24 2 43 47 12 29 22 56 22 60 0 6 -115 48 -132 48 -5 0 -13
-12 -19 -27z"/>
</g>
</svg>